<?xml version="1.0" encoding="UTF-8"?>
<svg version="1.1" xmlns="http://www.w3.org/2000/svg" width="558" height="563">
<path d="M0 0 C2.5625 1.75 2.5625 1.75 5 3.8125 C7.53160079 5.96879983 7.53160079 5.96879983 11.0625 6.75 C14.5625 7.75 14.5625 7.75 16.8515625 9.671875 C25.09965327 15.99461894 36.56950277 16.17469921 46.515625 15.59765625 C49.5625 15.75 49.5625 15.75 51.03515625 17.265625 C52.60876118 19.13200997 52.60876118 19.13200997 55.91796875 18.82421875 C57.81482422 18.63279297 57.81482422 18.63279297 59.75 18.4375 C61.02230469 18.31761719 62.29460937 18.19773437 63.60546875 18.07421875 C64.58128906 17.96722656 65.55710937 17.86023438 66.5625 17.75 C67.243125 19.35875 67.243125 19.35875 67.9375 21 C68.21464844 21.63679688 68.49179687 22.27359375 68.77734375 22.9296875 C69.37608086 24.31780438 69.94494005 25.71884813 70.5 27.125 C71.93264499 29.3161041 73.05740534 29.17066152 75.5625 29.75 C76.80012312 30.26105584 78.02449327 30.80525543 79.234375 31.37890625 C80.23017578 31.84780273 80.23017578 31.84780273 81.24609375 32.32617188 C81.92800781 32.65166016 82.60992187 32.97714844 83.3125 33.3125 C84.00988281 33.64185547 84.70726562 33.97121094 85.42578125 34.31054688 C87.1395467 35.12047712 88.85123194 35.93480638 90.5625 36.75 C90.5625 37.41 90.5625 38.07 90.5625 38.75 C91.4390625 39.01683594 92.315625 39.28367188 93.21875 39.55859375 C98.75958874 41.5328412 103.56204436 44.6874372 108.5625 47.75 C109.18946777 48.1320459 109.81643555 48.5140918 110.46240234 48.90771484 C112.39891292 50.09379735 114.3257582 51.29413191 116.25 52.5 C116.86230469 52.87648682 117.47460938 53.25297363 118.10546875 53.64086914 C122.44680754 56.40292261 122.44680754 56.40292261 123.5625 59.75 C124.26890625 60.02714844 124.9753125 60.30429688 125.703125 60.58984375 C129.55789876 62.15387081 132.21450334 64.58151045 135.3125 67.3125 C135.92794678 67.8489917 136.54339355 68.3854834 137.17749023 68.93823242 C144.37984127 75.26962778 151.40328575 81.59511296 156.5625 89.75 C156.5625 90.41 156.5625 91.07 156.5625 91.75 C157.15289062 91.98589844 157.74328125 92.22179687 158.3515625 92.46484375 C161.06906352 94.04445123 162.19838903 95.70383355 163.9375 98.3125 C164.53949219 99.20839844 165.14148438 100.10429687 165.76171875 101.02734375 C166.35597656 101.92582031 166.95023437 102.82429688 167.5625 103.75 C168.10519531 104.53503906 168.64789063 105.32007813 169.20703125 106.12890625 C177.5625 118.29193038 177.5625 118.29193038 177.5625 122.75 C178.2225 122.75 178.8825 122.75 179.5625 122.75 C180.02140625 123.8121875 180.4803125 124.874375 180.953125 125.96875 C181.57280135 127.39588341 182.19259957 128.82296391 182.8125 130.25 C183.11285156 130.94609375 183.41320312 131.6421875 183.72265625 132.359375 C185.2431883 135.85336354 186.82058919 139.26567744 188.60546875 142.6328125 C190.95432684 147.28038325 192.29881338 152.10484863 193.625 157.125 C194.01014771 158.55235474 194.01014771 158.55235474 194.40307617 160.00854492 C196.43802225 167.7715831 197.86699485 175.5518513 199.01953125 183.48828125 C199.21151714 186.59281588 199.21151714 186.59281588 200.5625 187.75 C205.58011068 217.67505786 207.61783327 254.60713166 198.5625 283.75 C198.03061021 285.62147691 197.5023265 287.49398041 196.9765625 289.3671875 C196.38055227 291.4532233 195.78418958 293.53915842 195.1875 295.625 C194.89617187 296.66269531 194.60484375 297.70039063 194.3046875 298.76953125 C192.5030119 305.03588541 190.3297432 310.85450846 187.5625 316.75 C186.98588522 318.08975302 186.41540392 319.4321651 185.8515625 320.77734375 C182.59152578 328.46840461 179.16184029 335.74561385 174.5625 342.75 C174.11519531 343.44738281 173.66789062 344.14476562 173.20703125 344.86328125 C171.69257073 347.18375718 170.13602331 349.46908134 168.5625 351.75 C167.96501953 352.61939209 167.96501953 352.61939209 167.35546875 353.50634766 C166.0161455 355.44767497 164.66585685 357.38093478 163.3125 359.3125 C162.87583008 359.94510742 162.43916016 360.57771484 161.98925781 361.22949219 C160.89747192 362.77328593 159.73545059 364.26693477 158.5625 365.75 C157.9025 365.75 157.2425 365.75 156.5625 365.75 C156.34207031 366.28753906 156.12164062 366.82507813 155.89453125 367.37890625 C154.11198697 370.55193962 151.7265849 373.05304514 149.25 375.6875 C148.77626953 376.19990234 148.30253906 376.71230469 147.81445312 377.24023438 C139.52384682 386.16596236 130.8619051 394.48362165 120.69140625 401.2421875 C118.58743185 402.63194859 118.58743185 402.63194859 117.15625 404.21484375 C114.86205891 406.42468958 112.25063556 407.84326772 109.5 409.4375 C107.90478516 410.37142578 107.90478516 410.37142578 106.27734375 411.32421875 C103.5625 412.75 103.5625 412.75 101.5625 412.75 C101.5625 413.41 101.5625 414.07 101.5625 414.75 C98.96189496 416.09070318 96.35745084 417.42273354 93.75 418.75 C93.01201172 419.1315625 92.27402344 419.513125 91.51367188 419.90625 C90.80146484 420.2671875 90.08925781 420.628125 89.35546875 421 C88.7008667 421.33515625 88.04626465 421.6703125 87.37182617 422.015625 C85.5625 422.75 85.5625 422.75 82.5625 422.75 C82.5625 423.41 82.5625 424.07 82.5625 424.75 C79.71186292 425.90533757 76.85751186 427.04939512 74 428.1875 C72.80020508 428.67573242 72.80020508 428.67573242 71.57617188 429.17382812 C66.86109338 431.04061431 62.61532937 432.26845519 57.5625 432.75 C57.5625 433.41 57.5625 434.07 57.5625 434.75 C40.68436754 438.97831597 24.02439669 442.74193937 6.6015625 443.5390625 C3.73043502 443.64011287 3.73043502 443.64011287 1.69116211 444.25488281 C-0.77460844 444.8284099 -3.00400759 444.87957426 -5.53515625 444.8828125 C-6.98438477 444.88474609 -6.98438477 444.88474609 -8.46289062 444.88671875 C-9.46513672 444.88285156 -10.46738281 444.87898438 -11.5 444.875 C-12.50611328 444.87886719 -13.51222656 444.88273437 -14.54882812 444.88671875 C-15.99612305 444.88478516 -15.99612305 444.88478516 -17.47265625 444.8828125 C-18.79342163 444.88112061 -18.79342163 444.88112061 -20.14086914 444.87939453 C-22.4375 444.75 -22.4375 444.75 -25.4375 443.75 C-26.79329719 443.59487287 -28.15386544 443.47928918 -29.515625 443.390625 C-39.40335952 442.65341572 -48.99494995 441.44074998 -58.6875 439.3125 C-59.62625977 439.1072168 -60.56501953 438.90193359 -61.53222656 438.69042969 C-71.68760841 436.37199846 -81.26936904 432.74008024 -91 429.0625 C-92.10408203 428.64677734 -93.20816406 428.23105469 -94.34570312 427.80273438 C-97.0435418 426.78666526 -99.74078845 425.76905595 -102.4375 424.75 C-102.4375 424.09 -102.4375 423.43 -102.4375 422.75 C-103.23800781 422.51216797 -103.23800781 422.51216797 -104.0546875 422.26953125 C-110.18618303 420.34946085 -115.76209514 417.74765643 -121.4375 414.75 C-121.4375 414.09 -121.4375 413.43 -121.4375 412.75 C-122.17742187 412.47414063 -122.91734375 412.19828125 -123.6796875 411.9140625 C-131.11311597 408.77643972 -137.59295723 403.23402289 -144.0546875 398.484375 C-145.82029192 397.19924654 -147.62048158 395.96134561 -149.4375 394.75 C-149.4375 394.09 -149.4375 393.43 -149.4375 392.75 C-150.01628906 392.48703125 -150.59507812 392.2240625 -151.19140625 391.953125 C-157.40166999 388.62658372 -162.08134963 383.16575451 -166.4375 377.75 C-167.19933594 376.99332031 -167.96117187 376.23664063 -168.74609375 375.45703125 C-171.58040628 372.60626408 -174.22075213 369.63139742 -176.8125 366.5625 C-177.29146729 365.99587646 -177.77043457 365.42925293 -178.26391602 364.84545898 C-182.29983735 360.01634295 -185.94855415 354.98822448 -189.4375 349.75 C-190.489375 348.265 -190.489375 348.265 -191.5625 346.75 C-198.4375 335.75 -198.4375 335.75 -198.4375 330.75 C-199.4275 330.42 -200.4175 330.09 -201.4375 329.75 C-202.46484375 327.89575195 -202.46484375 327.89575195 -203.375 325.48828125 C-203.71273437 324.61623047 -204.05046875 323.74417969 -204.3984375 322.84570312 C-204.74132812 321.92724609 -205.08421875 321.00878906 -205.4375 320.0625 C-206.12261138 318.26601433 -206.81005907 316.47041767 -207.5 314.67578125 C-207.82935547 313.81581543 -208.15871094 312.95584961 -208.49804688 312.06982422 C-209.46459154 309.58277553 -209.46459154 309.58277553 -211.03125 306.65234375 C-212.86204487 302.87378656 -213.89641294 299.05690807 -214.9375 295 C-215.15180664 294.18031738 -215.36611328 293.36063477 -215.58691406 292.51611328 C-217.28249058 285.82459601 -218.52190143 279.1001278 -219.53710938 272.27441406 C-219.78703516 268.71099614 -219.78703516 268.71099614 -221.4375 265.75 C-222.48690301 259.84416735 -222.58631655 253.85621643 -222.5703125 247.875 C-222.57126923 247.06562988 -222.57222595 246.25625977 -222.57321167 245.42236328 C-222.57388688 243.7249341 -222.57207905 242.02750223 -222.56787109 240.33007812 C-222.56251343 237.75645048 -222.56783868 235.18299732 -222.57421875 232.609375 C-222.57355785 230.94791629 -222.57227645 229.28645768 -222.5703125 227.625 C-222.57233673 226.86848145 -222.57436096 226.11196289 -222.57644653 225.33251953 C-222.51389948 210.82639948 -222.51389948 210.82639948 -220.4375 208.75 C-220.26932786 207.33825901 -220.16110818 205.91929852 -220.078125 204.5 C-219.34686453 193.65826871 -218.15927866 183.09593048 -216 172.4375 C-215.7947168 171.41978516 -215.58943359 170.40207031 -215.37792969 169.35351562 C-213.29199343 159.43634138 -210.35842864 150.08679328 -206.4375 140.75 C-205.95925781 139.5846875 -205.48101562 138.419375 -204.98828125 137.21875 C-204.47209293 135.97885885 -203.95516919 134.7392736 -203.4375 133.5 C-202.963125 132.36046875 -202.48875 131.2209375 -202 130.046875 C-200.41280875 126.69790146 -198.51897616 123.80976996 -196.4375 120.75 C-195.65733735 119.20233967 -194.90529952 117.64005193 -194.1875 116.0625 C-191.73604316 111.03056227 -188.65004166 106.69606855 -185.29296875 102.23046875 C-183.84216266 100.29097008 -182.48763194 98.35262798 -181.1875 96.3125 C-179.4375 93.75 -179.4375 93.75 -177.54296875 91.8671875 C-174.83126863 89.14039443 -172.61923028 86.13861928 -170.31640625 83.06640625 C-166.18460586 77.97252345 -161.21944286 73.60040806 -156.4375 69.125 C-155.83421875 68.55265625 -155.2309375 67.9803125 -154.609375 67.390625 C-146.43568314 59.75 -146.43568314 59.75 -142.4375 59.75 C-142.1075 58.76 -141.7775 57.77 -141.4375 56.75 C-139.13671875 55.20703125 -139.13671875 55.20703125 -136.125 53.5625 C-130.62780884 50.47647254 -125.41697785 47.12154122 -120.2265625 43.546875 C-112.78097826 38.75 -112.78097826 38.75 -108.4375 38.75 C-108.4375 38.09 -108.4375 37.43 -108.4375 36.75 C-96.4375 30.75 -96.4375 30.75 -94.1875 29.84375 C-91.77905437 28.33847148 -91.2306632 26.732908 -90.1875 24.125 C-89.85234375 23.30773437 -89.5171875 22.49046875 -89.171875 21.6484375 C-88.80835938 20.70871094 -88.80835938 20.70871094 -88.4375 19.75 C-87.54546875 19.72421875 -86.6534375 19.6984375 -85.734375 19.671875 C-84.56390625 19.61515625 -83.3934375 19.5584375 -82.1875 19.5 C-80.44726562 19.43039063 -80.44726562 19.43039063 -78.671875 19.359375 C-75.35334108 19.05651741 -75.35334108 19.05651741 -73.4609375 16.70703125 C-71.4375 14.75 -71.4375 14.75 -68.1796875 14.46484375 C-66.26542969 14.57505859 -66.26542969 14.57505859 -64.3125 14.6875 C-52.03174563 15.10546504 -39.94495919 13.0652972 -28.4375 8.75 C-27.7775 8.75 -27.1175 8.75 -26.4375 8.75 C-26.23125 8.0075 -26.025 7.265 -25.8125 6.5 C-21.24573542 -2.63352917 -8.55106477 -3.1094781 0 0 Z " fill="#FAFCFC" transform="translate(285.4375,58.25)"/>
<path d="M0 0 C4.13228456 0.36461334 6.22523491 1.76475024 9.1796875 4.6484375 C11.12034998 6.20876794 11.12034998 6.20876794 14.265625 7.3125 C18.45679254 9.03503349 21.51904417 11.62920013 24.875 14.625 C25.48142334 15.15697998 26.08784668 15.68895996 26.71264648 16.23706055 C33.86585881 22.56559651 40.86212263 28.878839 46 37 C46 37.66 46 38.32 46 39 C46.59039062 39.23589844 47.18078125 39.47179687 47.7890625 39.71484375 C50.50656352 41.29445123 51.63588903 42.95383355 53.375 45.5625 C53.97699219 46.45839844 54.57898438 47.35429687 55.19921875 48.27734375 C55.79347656 49.17582031 56.38773437 50.07429688 57 51 C57.54269531 51.78503906 58.08539063 52.57007813 58.64453125 53.37890625 C67 65.54193038 67 65.54193038 67 70 C67.66 70 68.32 70 69 70 C69.45890625 71.0621875 69.9178125 72.124375 70.390625 73.21875 C71.01030135 74.64588341 71.63009957 76.07296391 72.25 77.5 C72.70052734 78.54414063 72.70052734 78.54414063 73.16015625 79.609375 C74.6806883 83.10336354 76.25808919 86.51567744 78.04296875 89.8828125 C80.39182684 94.53038325 81.73631338 99.35484863 83.0625 104.375 C83.44764771 105.80235474 83.44764771 105.80235474 83.84057617 107.25854492 C85.87552225 115.0215831 87.30449485 122.8018513 88.45703125 130.73828125 C88.64901714 133.84281588 88.64901714 133.84281588 90 135 C95.01761068 164.92505786 97.05533327 201.85713166 88 231 C87.46811021 232.87147691 86.9398265 234.74398041 86.4140625 236.6171875 C85.81805227 238.7032233 85.22168958 240.78915842 84.625 242.875 C84.18800781 244.43154297 84.18800781 244.43154297 83.7421875 246.01953125 C81.9405119 252.28588541 79.7672432 258.10450846 77 264 C76.42338522 265.33975302 75.85290392 266.6821651 75.2890625 268.02734375 C72.02902578 275.71840461 68.59934029 282.99561385 64 290 C63.55269531 290.69738281 63.10539062 291.39476562 62.64453125 292.11328125 C61.13007073 294.43375718 59.57352331 296.71908134 58 299 C57.40251953 299.86939209 57.40251953 299.86939209 56.79296875 300.75634766 C55.4536455 302.69767497 54.10335685 304.63093478 52.75 306.5625 C52.31333008 307.19510742 51.87666016 307.82771484 51.42675781 308.47949219 C50.33497192 310.02328593 49.17295059 311.51693477 48 313 C47.34 313 46.68 313 46 313 C45.77957031 313.53753906 45.55914062 314.07507813 45.33203125 314.62890625 C43.54948697 317.80193962 41.1640849 320.30304514 38.6875 322.9375 C38.21376953 323.44990234 37.74003906 323.96230469 37.25195312 324.49023438 C28.96134682 333.41596236 20.2994051 341.73362165 10.12890625 348.4921875 C8.02493185 349.88194859 8.02493185 349.88194859 6.59375 351.46484375 C4.29955891 353.67468958 1.68813556 355.09326772 -1.0625 356.6875 C-2.65771484 357.62142578 -2.65771484 357.62142578 -4.28515625 358.57421875 C-7 360 -7 360 -9 360 C-9 360.66 -9 361.32 -9 362 C-11.60060504 363.34070318 -14.20504916 364.67273354 -16.8125 366 C-17.55048828 366.3815625 -18.28847656 366.763125 -19.04882812 367.15625 C-19.76103516 367.5171875 -20.47324219 367.878125 -21.20703125 368.25 C-21.8616333 368.58515625 -22.51623535 368.9203125 -23.19067383 369.265625 C-25 370 -25 370 -28 370 C-28 370.66 -28 371.32 -28 372 C-30.85063708 373.15533757 -33.70498814 374.29939512 -36.5625 375.4375 C-37.76229492 375.92573242 -37.76229492 375.92573242 -38.98632812 376.42382812 C-43.70140662 378.29061431 -47.94717063 379.51845519 -53 380 C-53 380.66 -53 381.32 -53 382 C-69.87813246 386.22831597 -86.53810331 389.99193937 -103.9609375 390.7890625 C-106.83206498 390.89011287 -106.83206498 390.89011287 -108.87133789 391.50488281 C-111.33710844 392.0784099 -113.56650759 392.12957426 -116.09765625 392.1328125 C-117.54688477 392.13474609 -117.54688477 392.13474609 -119.02539062 392.13671875 C-120.02763672 392.13285156 -121.02988281 392.12898438 -122.0625 392.125 C-123.06861328 392.12886719 -124.07472656 392.13273437 -125.11132812 392.13671875 C-126.55862305 392.13478516 -126.55862305 392.13478516 -128.03515625 392.1328125 C-129.35592163 392.13112061 -129.35592163 392.13112061 -130.70336914 392.12939453 C-133 392 -133 392 -136 391 C-137.35579719 390.84487287 -138.71636544 390.72928918 -140.078125 390.640625 C-149.96585952 389.90341572 -159.55744995 388.69074998 -169.25 386.5625 C-170.18875977 386.3572168 -171.12751953 386.15193359 -172.09472656 385.94042969 C-182.25010841 383.62199846 -191.83186904 379.99008024 -201.5625 376.3125 C-202.66658203 375.89677734 -203.77066406 375.48105469 -204.90820312 375.05273438 C-207.6060418 374.03666526 -210.30328845 373.01905595 -213 372 C-213 371.34 -213 370.68 -213 370 C-213.80050781 369.76216797 -213.80050781 369.76216797 -214.6171875 369.51953125 C-220.74868303 367.59946085 -226.32459514 364.99765643 -232 362 C-232 361.34 -232 360.68 -232 360 C-232.73992187 359.72414063 -233.47984375 359.44828125 -234.2421875 359.1640625 C-241.67561597 356.02643972 -248.15545723 350.48402289 -254.6171875 345.734375 C-256.38279192 344.44924654 -258.18298158 343.21134561 -260 342 C-260 341.34 -260 340.68 -260 340 C-260.57878906 339.73703125 -261.15757812 339.4740625 -261.75390625 339.203125 C-267.96416999 335.87658372 -272.64384963 330.41575451 -277 325 C-277.76183594 324.24332031 -278.52367187 323.48664063 -279.30859375 322.70703125 C-282.14290628 319.85626408 -284.78325213 316.88139742 -287.375 313.8125 C-287.85396729 313.24587646 -288.33293457 312.67925293 -288.82641602 312.09545898 C-292.86233735 307.26634295 -296.51105415 302.23822448 -300 297 C-301.051875 295.515 -301.051875 295.515 -302.125 294 C-309 283 -309 283 -309 278 C-309.99 277.67 -310.98 277.34 -312 277 C-313.02734375 275.14575195 -313.02734375 275.14575195 -313.9375 272.73828125 C-314.27523437 271.86623047 -314.61296875 270.99417969 -314.9609375 270.09570312 C-315.30382812 269.17724609 -315.64671875 268.25878906 -316 267.3125 C-316.68511138 265.51601433 -317.37255907 263.72041767 -318.0625 261.92578125 C-318.39185547 261.06581543 -318.72121094 260.20584961 -319.06054688 259.31982422 C-320.02709154 256.83277553 -320.02709154 256.83277553 -321.59375 253.90234375 C-323.42454487 250.12378656 -324.45891294 246.30690807 -325.5 242.25 C-325.71430664 241.43031738 -325.92861328 240.61063477 -326.14941406 239.76611328 C-327.84499058 233.07459601 -329.08440143 226.3501278 -330.09960938 219.52441406 C-330.34953516 215.96099614 -330.34953516 215.96099614 -332 213 C-333.04940301 207.09416735 -333.14881655 201.10621643 -333.1328125 195.125 C-333.13376923 194.31562988 -333.13472595 193.50625977 -333.13571167 192.67236328 C-333.13638688 190.9749341 -333.13457905 189.27750223 -333.13037109 187.58007812 C-333.12501343 185.00645048 -333.13033868 182.43299732 -333.13671875 179.859375 C-333.13605785 178.19791629 -333.13477645 176.53645768 -333.1328125 174.875 C-333.13483673 174.11848145 -333.13686096 173.36196289 -333.13894653 172.58251953 C-333.07639948 158.07639948 -333.07639948 158.07639948 -331 156 C-330.83182786 154.58825901 -330.72360818 153.16929852 -330.640625 151.75 C-329.90936453 140.90826871 -328.72177866 130.34593048 -326.5625 119.6875 C-326.3572168 118.66978516 -326.15193359 117.65207031 -325.94042969 116.60351562 C-323.85449343 106.68634138 -320.92092864 97.33679328 -317 88 C-316.52175781 86.8346875 -316.04351562 85.669375 -315.55078125 84.46875 C-315.03459293 83.22885885 -314.51766919 81.9892736 -314 80.75 C-313.525625 79.61046875 -313.05125 78.4709375 -312.5625 77.296875 C-310.97530875 73.94790146 -309.08147616 71.05976996 -307 68 C-306.21983735 66.45233967 -305.46779952 64.89005193 -304.75 63.3125 C-302.29854316 58.28056227 -299.21254166 53.94606855 -295.85546875 49.48046875 C-294.40466266 47.54097008 -293.05013194 45.60262798 -291.75 43.5625 C-290 41 -290 41 -288.09765625 39.125 C-285.37900998 36.37091514 -283.28166827 33.29062781 -281.07421875 30.12109375 C-278.82345879 27.81946916 -276.80266512 27.09970604 -273.84399414 25.95825195 C-270.28237842 24.10741895 -267.93022659 20.90092622 -265.375 17.875 C-259.7640411 11.24506979 -259.7640411 11.24506979 -256.1015625 10.0703125 C-255.06128906 10.03550781 -255.06128906 10.03550781 -254 10 C-255.3308819 12.97550629 -256.76298629 14.97882699 -259.125 17.21484375 C-259.74415283 17.81159912 -260.36330566 18.40835449 -261.0012207 19.02319336 C-261.66081787 19.65491455 -262.32041504 20.28663574 -263 20.9375 C-298.39297043 55.68183096 -314.97210195 104.82733089 -315.42553711 153.64920044 C-315.58306718 189.54314965 -307.52664382 222.33080371 -290.91992188 254.22509766 C-290.1240182 255.7607186 -289.34909305 257.30717853 -288.578125 258.85546875 C-281.92954371 271.78109297 -272.94996895 283.46816152 -263 294 C-261.87037767 295.32941948 -260.74520688 296.66263718 -259.625 298 C-238.36593866 322.21979819 -206.1285172 340.00697903 -175.1875 348.0625 C-173.87362305 348.42698242 -173.87362305 348.42698242 -172.53320312 348.79882812 C-155.29620434 353.32729401 -137.87607237 354.55956232 -120.125 354.4375 C-119.16476929 354.43412628 -118.20453857 354.43075256 -117.21520996 354.42727661 C-102.80014087 354.3540786 -89.0002993 353.69650087 -75 350 C-74.03868164 349.75862305 -73.07736328 349.51724609 -72.08691406 349.26855469 C-37.91159165 340.56320982 -9.30401487 324.42540324 16 300 C16.70125 299.36191406 17.4025 298.72382813 18.125 298.06640625 C34.61256253 282.64366546 46.73640324 261.39126765 56 241 C56.3309668 240.2771582 56.66193359 239.55431641 57.00292969 238.80957031 C72.78804062 203.68958666 79.14075679 161.02922775 72 123 C71.72542969 121.52249268 71.72542969 121.52249268 71.4453125 120.01513672 C62.82470687 75.05628374 40.66708138 33.58203479 4.3203125 4.98046875 C2 3 2 3 0 0 Z " fill="#F48D26" transform="translate(396,111)"/>
<path d="M0 0 C0.82722061 -0.00418945 1.65444122 -0.00837891 2.50672913 -0.01269531 C5.19463822 -0.02250021 7.88238843 -0.0224819 10.5703125 -0.01953125 C11.93737839 -0.01912338 11.93737839 -0.01912338 13.33206177 -0.01870728 C34.29552876 0.01022637 54.15458049 2.05411171 74.6953125 6.16796875 C75.59636394 14.88677838 76.04786011 23.60405329 76.4140625 32.359375 C76.47733458 33.83162631 76.54077445 35.30387042 76.60437012 36.77610779 C76.73712564 39.86312028 76.86802913 42.95020402 76.99755859 46.03735352 C77.15895218 49.88119251 77.32461586 53.72483196 77.49163818 57.56842995 C78.41039998 78.76381562 79.12824442 99.96030958 79.6953125 121.16796875 C70.37132194 120.21356192 70.37132194 120.21356192 65.98046875 119.1953125 C42.00101902 114.08003649 16.72699664 114.56218991 -7.3046875 119.16796875 C-9.32655009 119.53665554 -11.34869165 119.90381542 -13.37109375 120.26953125 C-15.01564516 120.56889971 -16.66018374 120.86833866 -18.3046875 121.16796875 C-22.2840217 108.33064027 -26.09807302 95.46232654 -29.67797852 82.5078125 C-31.61172442 75.54611183 -33.66643943 68.63185697 -35.8046875 61.73046875 C-38.72896518 52.28103169 -41.34572802 42.76692244 -43.87524414 33.20483398 C-45.6363768 26.56687399 -47.50631379 20.00576089 -49.67578125 13.48828125 C-50.3046875 11.16796875 -50.3046875 11.16796875 -50.3046875 7.16796875 C-38.45906404 3.60716009 -26.73153348 2.04106174 -14.421875 1.4140625 C-9.51401411 1.0265998 -5.0196905 0.00765114 0 0 Z " fill="#F48D2C" transform="translate(178.3046875,290.83203125)"/>
<path d="M0 0 C0.88261505 0.00077545 1.7652301 0.0015509 2.67459106 0.00234985 C18.79864528 0.04337989 34.92280091 0.20471629 50.8125 3.1875 C51.78638672 3.35701172 52.76027344 3.52652344 53.76367188 3.70117188 C58.26353109 4.51231853 62.27761417 5.45047168 66.5 7.25 C64.98003515 14.35305525 63.20014585 21.3613091 61.3125 28.375 C61.04630859 29.38175781 60.78011719 30.38851563 60.50585938 31.42578125 C58.58127789 38.5916833 56.46765669 45.68528475 54.2890625 52.77734375 C50.01820185 66.69161922 46.04190296 80.68764002 42.0625 94.6875 C41.32398839 97.28071889 40.58485232 99.87375965 39.84570312 102.46679688 C38.06165273 108.72725413 36.27988026 114.98835595 34.5 121.25 C33.89581238 121.11509659 33.29162476 120.98019318 32.66912842 120.84120178 C31.46924286 120.57381447 31.46924286 120.57381447 30.24511719 120.30102539 C29.45530457 120.12487198 28.66549194 119.94871857 27.85174561 119.76722717 C17.4463703 117.47873864 7.16627805 115.62737092 -3.5 115.25 C-4.67199951 115.20117676 -4.67199951 115.20117676 -5.86767578 115.15136719 C-25.45208678 114.42452307 -44.36388454 117.26342106 -63.5 121.25 C-63.61204658 110.77453366 -63.34380898 100.37349835 -62.75949097 89.9147644 C-62.0433029 77.05571892 -61.43730154 64.19425348 -60.95703125 51.32421875 C-60.89125885 49.56233719 -60.89125885 49.56233719 -60.82415771 47.76486206 C-60.60914596 41.95249768 -60.40074474 36.13994416 -60.19775391 30.32714844 C-60.12016168 28.18554526 -60.04252698 26.04394363 -59.96484375 23.90234375 C-59.93260208 22.92794846 -59.90036041 21.95355316 -59.86714172 20.94963074 C-59.68420925 15.97676966 -59.31589144 11.16015228 -58.5 6.25 C-39.32193551 0.57526108 -19.86221515 -0.0291959 0 0 Z " fill="#F4902D" transform="translate(354.5,291.75)"/>
<path d="M0 0 C0.33 0 0.66 0 1 0 C10.04465732 39.66780069 -6.39232123 89.57619339 -27.0546875 123.09765625 C-29.88887489 127.50741296 -32.89405801 131.77832105 -36 136 C-36.66999023 136.92014893 -36.66999023 136.92014893 -37.35351562 137.85888672 C-71.9314224 184.89764657 -123.87908376 213.06533838 -181 222 C-181.90210205 222.17813232 -182.8042041 222.35626465 -183.73364258 222.53979492 C-188.11020785 223.1564199 -192.42475037 223.20124857 -196.83984375 223.23828125 C-198.26627701 223.25283607 -198.26627701 223.25283607 -199.7215271 223.26768494 C-202.79356096 223.29260499 -205.86537517 223.30520897 -208.9375 223.3125 C-210.50158096 223.31642761 -210.50158096 223.31642761 -212.09725952 223.32043457 C-226.31705058 223.32427579 -239.9174243 222.99605448 -253.78417969 219.54248047 C-255.94426128 219.01364604 -258.10457716 218.57521853 -260.2890625 218.16015625 C-286.49351041 212.97136908 -312.51171613 200.74979419 -334 185 C-334.57041016 184.58363281 -335.14082031 184.16726563 -335.72851562 183.73828125 C-342.46478881 178.77952975 -348.84759777 173.51386254 -354.9765625 167.8125 C-357.07089533 165.85019557 -357.07089533 165.85019557 -360 164 C-360 163.34 -360 162.68 -360 162 C-361.32 162 -362.64 162 -364 162 C-372.74062564 154.7161453 -379.30573318 144.09455349 -386 135 C-386.64324219 134.13117188 -387.28648437 133.26234375 -387.94921875 132.3671875 C-398 118.4574295 -398 118.4574295 -398 112 C-399.485 111.505 -399.485 111.505 -401 111 C-402.02734375 109.14575195 -402.02734375 109.14575195 -402.9375 106.73828125 C-403.27523437 105.86623047 -403.61296875 104.99417969 -403.9609375 104.09570312 C-404.30382812 103.17724609 -404.64671875 102.25878906 -405 101.3125 C-405.68511138 99.51601433 -406.37255907 97.72041767 -407.0625 95.92578125 C-407.39193604 95.0651709 -407.72137207 94.20456055 -408.06079102 93.31787109 C-409.02433508 90.83650421 -409.02433508 90.83650421 -410.58984375 87.93359375 C-412.48326021 83.99465812 -413.4974306 79.9766792 -414.5625 75.75 C-414.77068359 74.95464844 -414.97886719 74.15929687 -415.19335938 73.33984375 C-417.67771524 63.69836238 -419.35903983 54.24560363 -420.125 44.3125 C-420.20991699 43.24265869 -420.29483398 42.17281738 -420.38232422 41.07055664 C-421.18611934 30.04627206 -421.20447653 19.04645119 -421 8 C-418.94397972 11.08403042 -418.67088128 12.24561885 -418.32421875 15.8046875 C-418.22141602 16.76987305 -418.11861328 17.73505859 -418.01269531 18.72949219 C-417.90538086 19.76750977 -417.79806641 20.80552734 -417.6875 21.875 C-414.98306741 45.28765928 -408.65554795 67.91615512 -398 89 C-397.67805664 89.64501465 -397.35611328 90.2900293 -397.02441406 90.95458984 C-389.56669777 105.81789486 -380.92024113 119.41756288 -370 132 C-369.28199219 132.82886719 -368.56398438 133.65773438 -367.82421875 134.51171875 C-353.18826699 151.31311419 -353.18826699 151.31311419 -335 164 C-335 164.66 -335 165.32 -335 166 C-334.26394531 166.26554688 -333.52789062 166.53109375 -332.76953125 166.8046875 C-330.0297295 167.98716893 -328.05051515 169.32021045 -325.6875 171.125 C-318.89785099 175.97331233 -311.52995145 179.4670816 -304 183 C-303.34725098 183.30969727 -302.69450195 183.61939453 -302.02197266 183.93847656 C-250.33550489 208.26611178 -186.94048574 209.82182639 -133.35546875 190.6484375 C-109.15798043 181.63890783 -87.08881133 168.64085012 -68.16015625 151.0078125 C-66.13461361 149.12512006 -64.05295609 147.34262939 -61.9375 145.5625 C-39.5289606 125.88234564 -22.85733041 96.88985292 -13 69 C-12.59136719 67.90042969 -12.18273437 66.80085938 -11.76171875 65.66796875 C-4.22857522 44.51452855 -1.115148 22.33230604 0 0 Z " fill="#F17227" transform="translate(485,277)"/>
<path d="M0 0 C-3.49365657 2.83183456 -7.06066604 5.52911303 -10.6875 8.1875 C-45.73941237 34.42111756 -60.81785529 75.55100468 -67.53076172 117.58349609 C-68.54800712 124.99001645 -69.223255 132.43433254 -69.9375 139.875 C-70.10994202 141.64001402 -70.28279819 143.40498762 -70.45605469 145.16992188 C-70.80501122 148.7286695 -71.15204793 152.28759592 -71.49755859 155.84667969 C-72.16820951 162.74282226 -72.85962243 169.63686168 -73.55227661 176.53082275 C-73.86396765 179.63503269 -74.17411387 182.73939687 -74.484375 185.84375 C-74.65625 187.5625 -74.828125 189.28125 -75 191 C-75.33 191 -75.66 191 -76 191 C-76.16435547 189.09154297 -76.16435547 189.09154297 -76.33203125 187.14453125 C-77.21277059 177.24715154 -78.28096857 167.41667033 -79.75537109 157.58984375 C-80.65666813 151.54128698 -81.44435762 145.48543737 -82.18614197 139.41523743 C-83.72510533 126.85277235 -85.33099754 114.42033313 -88.46142578 102.13964844 C-89.05304799 99.78925085 -89.60391734 97.43114892 -90.15234375 95.0703125 C-98.24742232 60.71622857 -113.00591764 26.48997251 -144 7 C-146.01607186 5.68692714 -148.01415125 4.35873862 -150 3 C-150 2.67 -150 2.34 -150 2 C-124.70148358 2.53619206 -102.45691448 15.41854776 -84.125 32 C-83.60647461 32.46897705 -83.08794922 32.9379541 -82.55371094 33.42114258 C-81.32583884 34.56947726 -80.15657017 35.77988202 -79 37 C-79 37.66 -79 38.32 -79 39 C-75.00856653 37.63413713 -72.40444029 35.84021573 -69.25 33.0625 C-52.56621442 19.11449647 -33.36308812 9.31604865 -13 2 C-11.91589844 1.608125 -10.83179688 1.21625 -9.71484375 0.8125 C-6.39631397 -0.1806715 -3.44398737 -0.13775949 0 0 Z " fill="#036EAF" transform="translate(350,77)"/>
<path d="M0 0 C0.495 6.435 0.495 6.435 1 13 C-16.2872357 17.23335976 -33.58237883 21.33001476 -51 25 C-46.23316303 27.39601276 -41.46479557 29.78894617 -36.69525146 32.17956543 C-35.02816525 33.01580675 -33.36153613 33.85295997 -31.69537354 34.69104004 C-20.15643718 40.51466214 -20.15643718 40.51466214 -8.44921875 45.98828125 C-7.12337769 46.58394897 -7.12337769 46.58394897 -5.77075195 47.19165039 C-4.22403949 47.87492752 -2.66948656 48.54084493 -1.10620117 49.18530273 C2.02858585 50.57067024 3.74504389 51.52589623 5.390625 54.5859375 C6.20936363 59.17297313 6.73555658 63.73286636 7.125 68.375 C7.20991699 69.34002441 7.29483398 70.30504883 7.38232422 71.29931641 C8.06177673 79.5607481 8.16078614 87.71696157 8 96 C-1.74310763 96.08885043 -11.41687403 95.8328012 -21.1484375 95.34375 C-22.54088948 95.27619488 -23.93335605 95.2089401 -25.32583618 95.14196777 C-28.93927778 94.96738903 -32.55251035 94.78881251 -36.16571045 94.60931396 C-39.87337366 94.42586161 -43.58122587 94.24631326 -47.2890625 94.06640625 C-54.52622982 93.71469189 -61.76315908 93.35837899 -69 93 C-69.495 86.565 -69.495 86.565 -70 80 C-67.78650037 78.89325019 -66.21234136 78.71502011 -63.7565918 78.45922852 C-62.87774826 78.36565567 -61.99890472 78.27208282 -61.09342957 78.17567444 C-59.66079521 78.02877419 -59.66079521 78.02877419 -58.19921875 77.87890625 C-57.21186234 77.77408432 -56.22450592 77.66926239 -55.20722961 77.56126404 C-52.03436116 77.22467125 -48.86099833 76.89309779 -45.6875 76.5625 C-42.55330723 76.23522032 -39.41926717 75.90671255 -36.28559875 75.57444763 C-34.33570581 75.36775247 -32.38551722 75.16381858 -30.4349823 74.96327209 C-23.25197719 74.20272141 -16.13105198 73.14610876 -9 72 C-9.79957626 71.60132217 -10.59915253 71.20264435 -11.42295837 70.79188538 C-18.9435934 67.04157009 -26.46327438 63.28935028 -33.98187923 59.53496647 C-37.84766183 57.60468885 -41.71381445 55.67516004 -45.58081055 53.74731445 C-49.30990312 51.8881852 -53.03802638 50.02712579 -56.76547432 48.16470146 C-58.19054086 47.45309485 -59.6159603 46.74219453 -61.04173088 46.03199959 C-63.03257335 45.04018699 -65.0221669 44.04591187 -67.01147461 43.05102539 C-68.14620712 42.48476944 -69.28093964 41.91851349 -70.45005798 41.33509827 C-73 40 -73 40 -74 39 C-74.22872967 37.2558658 -74.39529516 35.50349942 -74.53515625 33.75 C-74.62216797 32.66589844 -74.70917969 31.58179688 -74.79882812 30.46484375 C-74.88583984 29.32144531 -74.97285156 28.17804688 -75.0625 27 C-75.15337891 25.88753906 -75.24425781 24.77507812 -75.33789062 23.62890625 C-75.82595432 17.39783742 -76.05059292 11.24798006 -76 5 C-68.01083647 4.34186785 -60.02122918 3.6895218 -52.03101826 3.04424286 C-48.31951906 2.7443309 -44.60819359 2.4425441 -40.8972168 2.13623047 C-37.30546606 1.83983154 -33.71332311 1.54867357 -30.12087059 1.26091003 C-28.10636002 1.09823799 -26.09227219 0.93035723 -24.07820129 0.7623291 C-16.02326036 0.12255002 -8.08057451 -0.09936151 0 0 Z " fill="#FBFCFA" transform="translate(236,304)"/>
<path d="M0 0 C17.78840106 6.88694905 34.06973701 16.15094455 49 28 C49.65355469 28.49886719 50.30710937 28.99773437 50.98046875 29.51171875 C56.49252712 33.9137974 60.70911722 39.44170344 65 45 C65.62132812 45.7940625 66.24265625 46.588125 66.8828125 47.40625 C74.82047732 58.08472286 79.5114757 70.25930255 83 83 C83.50660156 84.68609375 83.50660156 84.68609375 84.0234375 86.40625 C89.59118933 105.66313604 91.19799234 125.78051407 91.0625 145.75 C91.05798828 147.03132812 91.05347656 148.31265625 91.04882812 149.6328125 C91.0371772 152.75525931 91.02082025 155.87760318 91 159 C89 156 89 156 88.3125 152.3125 C82.7611553 126.00766663 62.16271266 102.63836327 40.41015625 88.19140625 C24.5631047 77.9069561 8.23203862 70.8253215 -10 66 C-11.72863281 65.5359375 -11.72863281 65.5359375 -13.4921875 65.0625 C-18.64519938 63.72605802 -23.70924029 62.60122269 -29 62 C-29 61.67 -29 61.34 -29 61 C-6.22887451 60.78330676 16.31119178 60.79491899 39 63 C41.07540227 63.19010095 43.15092024 63.37894382 45.2265625 63.56640625 C46.14260254 63.64963135 47.05864258 63.73285645 48.00244141 63.81860352 C48.99123291 63.90839478 48.99123291 63.90839478 50 64 C40.454143 37.94542561 25.41608938 16.74373509 1.4765625 1.98828125 C0.74566406 1.49908203 0.74566406 1.49908203 0 1 C0 0.67 0 0.34 0 0 Z " fill="#0377B8" transform="translate(171,109)"/>
<path d="M0 0 C0.99 0 1.98 0 3 0 C4.20284401 2.07573081 5.38705701 4.15883095 6.5625 6.25 C6.90474609 6.83652344 7.24699219 7.42304688 7.59960938 8.02734375 C10.06330177 12.45701291 10.06330177 12.45701291 9.76293945 15.03344727 C8.43816784 18.44817858 5.39237431 20.42644091 2.625 22.6875 C1.99303711 23.21569336 1.36107422 23.74388672 0.70996094 24.28808594 C-1.18568944 25.86827256 -3.09152853 27.43533778 -5 29 C-5.99773437 29.82628906 -6.99546875 30.65257812 -8.0234375 31.50390625 C-13.96504291 36.39849523 -19.97748841 41.20550596 -26 46 C-21.78143581 52.02652027 -17.0051728 57.29581399 -11.9699707 62.63305664 C-7.75115213 67.12802484 -3.8196329 71.75597314 0 76.59765625 C2.02007338 79.13642911 2.02007338 79.13642911 4.8125 81.55859375 C7 84 7 84 7.06640625 86.046875 C5.69135549 88.56528298 4.01392587 90.27245155 1.9375 92.25 C0.83728516 93.30960938 0.83728516 93.30960938 -0.28515625 94.390625 C-0.85105469 94.92171875 -1.41695313 95.4528125 -2 96 C-3.65678464 94.58482978 -5.31269771 93.1686297 -6.96484375 91.74804688 C-8.22391023 90.66660302 -9.48628727 89.58898437 -10.75390625 88.51757812 C-16.80609339 83.33465761 -22.39348384 77.7188852 -28 72.0625 C-31.3 68.741875 -34.6 65.42125 -38 62 C-39.32 72.89 -40.64 83.78 -42 95 C-45.25875 95.825 -48.5175 96.65 -51.875 97.5 C-52.90093262 97.76103516 -53.92686523 98.02207031 -54.98388672 98.29101562 C-55.79100098 98.49404297 -56.59811523 98.69707031 -57.4296875 98.90625 C-58.25710449 99.11572266 -59.08452148 99.32519531 -59.93701172 99.54101562 C-62 100 -62 100 -64 100 C-64.33675014 90.37542423 -63.05567458 81.04105839 -61.84765625 71.515625 C-61.62535249 69.72831288 -61.40355425 67.94093781 -61.18223572 66.15350342 C-60.71931078 62.42462114 -60.25250669 58.69625422 -59.7824707 54.96826172 C-59.18112073 50.19877604 -58.58614716 45.4285245 -57.99364567 40.65793228 C-57.42609 36.08942067 -56.85591904 31.5212369 -56.28515625 26.953125 C-56.17709215 26.08736092 -56.06902805 25.22159683 -55.95768929 24.32959747 C-55.65036243 21.87222195 -55.34124467 19.41507888 -55.03149414 16.95800781 C-54.94158203 16.2378801 -54.85166992 15.51775238 -54.7590332 14.77580261 C-54.25907864 10.82753638 -53.65489381 6.92936289 -53 3 C-46.4 2.34 -39.8 1.68 -33 1 C-33.165 3.3925 -33.33 5.785 -33.5 8.25 C-33.95463647 15.17413473 -34.11830436 22.05947776 -34 29 C-27.38257927 23.70094355 -21.02549696 18.24609878 -14.7890625 12.50390625 C-11.0032813 9.10518671 -7.07864278 5.9075747 -3.1171875 2.71484375 C-1.13793226 1.17273924 -1.13793226 1.17273924 0 0 Z " fill="#FBFCFB" transform="translate(373,300)"/>
<path d="M0 0 C0.99 0.495 0.99 0.495 2 1 C0.76636719 1.92619141 0.76636719 1.92619141 -0.4921875 2.87109375 C-23.01932311 19.90628659 -36.77650549 37.72733256 -47 64 C-45.73027344 63.79503906 -44.46054687 63.59007812 -43.15234375 63.37890625 C-41.41411631 63.10642735 -39.67583187 62.83431189 -37.9375 62.5625 C-37.10927734 62.42779297 -36.28105469 62.29308594 -35.42773438 62.15429688 C-20.1848872 59.79596958 -4.94095307 59.86968587 10.4375 59.9375 C12.44075408 59.94252882 14.44400939 59.94708926 16.44726562 59.95117188 C21.29820819 59.96205928 26.14909003 59.97924642 31 60 C31 60.33 31 60.66 31 61 C30.44876465 61.10957031 29.8975293 61.21914062 29.32958984 61.33203125 C-8.57454191 69.0206863 -47.19030262 85.71371391 -69.45141602 119.00585938 C-77.30555796 131.09669573 -82.28262926 143.11742961 -86 157 C-86.33 157 -86.66 157 -87 157 C-87.37053751 114.37108447 -84.97544573 66.77543218 -53.40820312 34.41796875 C-52.94349609 33.95003906 -52.47878906 33.48210937 -52 33 C-51.19046875 32.175 -50.3809375 31.35 -49.546875 30.5 C-38.73914352 20.19328918 -25.81485519 13.17865569 -12.6875 6.3125 C-12.07593048 5.99028473 -11.46436096 5.66806946 -10.83425903 5.33609009 C-9.08593882 4.41884182 -7.33021132 3.51575455 -5.57421875 2.61328125 C-4.54901123 2.08516846 -3.52380371 1.55705566 -2.4675293 1.01293945 C-1.65324463 0.67866943 -0.83895996 0.34439941 0 0 Z " fill="#0377B8" transform="translate(373,110)"/>
<path d="M0 0 C2.5625 1.75 2.5625 1.75 5 3.8125 C7.53160079 5.96879983 7.53160079 5.96879983 11.0625 6.75 C14.5625 7.75 14.5625 7.75 16.8515625 9.671875 C25.09965327 15.99461894 36.56950277 16.17469921 46.515625 15.59765625 C49.5625 15.75 49.5625 15.75 51.296875 17.12109375 C51.92335938 17.92740234 51.92335938 17.92740234 52.5625 18.75 C53.5525 19.41 54.5425 20.07 55.5625 20.75 C54.90507812 20.9459375 54.24765625 21.141875 53.5703125 21.34375 C30.49789739 28.59686694 6.81474777 40.49775223 -10.4375 57.75 C-14.4375 57.75 -14.4375 57.75 -16.0078125 56.28125 C-16.77738281 55.27578125 -16.77738281 55.27578125 -17.5625 54.25 C-31.51364241 37.4613371 -55.63342722 24.83214132 -77.37890625 22.2890625 C-79.61490477 22.14670475 -81.85384356 22.04095232 -84.09375 21.98828125 C-85.25390625 21.87033203 -85.25390625 21.87033203 -86.4375 21.75 C-86.7675 21.09 -87.0975 20.43 -87.4375 19.75 C-86.61765625 19.72421875 -85.7978125 19.6984375 -84.953125 19.671875 C-83.33664063 19.58679688 -83.33664063 19.58679688 -81.6875 19.5 C-80.62015625 19.45359375 -79.5528125 19.4071875 -78.453125 19.359375 C-75.33024472 19.02821988 -75.33024472 19.02821988 -73.4921875 16.70703125 C-71.4375 14.75 -71.4375 14.75 -68.1796875 14.46484375 C-66.90351563 14.53832031 -65.62734375 14.61179687 -64.3125 14.6875 C-52.03174563 15.10546504 -39.94495919 13.0652972 -28.4375 8.75 C-27.7775 8.75 -27.1175 8.75 -26.4375 8.75 C-26.23125 8.0075 -26.025 7.265 -25.8125 6.5 C-21.24573542 -2.63352917 -8.55106477 -3.1094781 0 0 Z " fill="#F9FCFC" transform="translate(285.4375,58.25)"/>
<path d="M0 0 C9.24 0 18.48 0 28 0 C28.29075963 24.19766244 27.81928756 48.35962625 27.13027191 72.54613495 C27.06253733 74.93618288 26.99635867 77.32626986 26.93048096 79.71636963 C26.82462318 83.53689025 26.71393629 87.35724214 26.59936714 91.17751122 C26.5570414 92.60285077 26.51591981 94.02822666 26.47608757 95.45363808 C26.42032457 97.43006185 26.35883529 99.40632152 26.29711914 101.38256836 C26.26380997 102.49595078 26.23050079 103.60933319 26.19618225 104.75645447 C25.98863505 108.18790046 25.48616659 111.5968339 25 115 C17.74 115 10.48 115 3 115 C2.60069373 105.46939479 2.20827825 95.93856456 1.82654572 86.40723896 C1.64885995 81.97680505 1.46866703 77.5465094 1.28173828 73.11645508 C0.25507336 48.72873172 -0.19381574 24.40911856 0 0 Z " fill="#F4902D" transform="translate(260,298)"/>
<path d="M0 0 C0.66 0 1.32 0 2 0 C2.45890625 1.0621875 2.9178125 2.124375 3.390625 3.21875 C4.01030135 4.64588341 4.63009957 6.07296391 5.25 7.5 C5.70052734 8.54414063 5.70052734 8.54414063 6.16015625 9.609375 C7.6806883 13.10336354 9.25808919 16.51567744 11.04296875 19.8828125 C13.39182684 24.53038325 14.73631338 29.35484863 16.0625 34.375 C16.44764771 35.80235474 16.44764771 35.80235474 16.84057617 37.25854492 C18.87552225 45.0215831 20.30449485 52.8018513 21.45703125 60.73828125 C21.64901714 63.84281588 21.64901714 63.84281588 23 65 C28.01761068 94.92505786 30.05533327 131.85713166 21 161 C20.46811021 162.87147691 19.9398265 164.74398041 19.4140625 166.6171875 C18.81805227 168.7032233 18.22168958 170.78915842 17.625 172.875 C17.18800781 174.43154297 17.18800781 174.43154297 16.7421875 176.01953125 C14.9405119 182.28588541 12.7672432 188.10450846 10 194 C9.42338522 195.33975302 8.85290392 196.6821651 8.2890625 198.02734375 C5.02902578 205.71840461 1.59934029 212.99561385 -3 220 C-3.44730469 220.69738281 -3.89460938 221.39476562 -4.35546875 222.11328125 C-5.86992927 224.43375718 -7.42647669 226.71908134 -9 229 C-9.59748047 229.86939209 -9.59748047 229.86939209 -10.20703125 230.75634766 C-11.5463545 232.69767497 -12.89664315 234.63093478 -14.25 236.5625 C-14.68666992 237.19510742 -15.12333984 237.82771484 -15.57324219 238.47949219 C-16.66502808 240.02328593 -17.82704941 241.51693477 -19 243 C-19.66 243 -20.32 243 -21 243 C-21.22042969 243.53753906 -21.44085938 244.07507813 -21.66796875 244.62890625 C-23.45051303 247.80193962 -25.8359151 250.30304514 -28.3125 252.9375 C-28.78623047 253.44990234 -29.25996094 253.96230469 -29.74804688 254.49023438 C-38.03865318 263.41596236 -46.7005949 271.73362165 -56.87109375 278.4921875 C-58.97506815 279.88194859 -58.97506815 279.88194859 -60.40625 281.46484375 C-62.70044109 283.67468958 -65.31186444 285.09326772 -68.0625 286.6875 C-69.65771484 287.62142578 -69.65771484 287.62142578 -71.28515625 288.57421875 C-74 290 -74 290 -76 290 C-76 290.66 -76 291.32 -76 292 C-78.60060504 293.34070318 -81.20504916 294.67273354 -83.8125 296 C-84.55048828 296.3815625 -85.28847656 296.763125 -86.04882812 297.15625 C-86.76103516 297.5171875 -87.47324219 297.878125 -88.20703125 298.25 C-88.8616333 298.58515625 -89.51623535 298.9203125 -90.19067383 299.265625 C-92 300 -92 300 -95 300 C-95 300.66 -95 301.32 -95 302 C-97.85063708 303.15533757 -100.70498814 304.29939512 -103.5625 305.4375 C-104.76229492 305.92573242 -104.76229492 305.92573242 -105.98632812 306.42382812 C-110.70140662 308.29061431 -114.94717063 309.51845519 -120 310 C-120 310.66 -120 311.32 -120 312 C-136.87813246 316.22831597 -153.53810331 319.99193937 -170.9609375 320.7890625 C-173.83206498 320.89011287 -173.83206498 320.89011287 -175.87133789 321.50488281 C-178.33710844 322.0784099 -180.56650759 322.12957426 -183.09765625 322.1328125 C-184.54688477 322.13474609 -184.54688477 322.13474609 -186.02539062 322.13671875 C-187.02763672 322.13285156 -188.02988281 322.12898438 -189.0625 322.125 C-190.06861328 322.12886719 -191.07472656 322.13273437 -192.11132812 322.13671875 C-193.55862305 322.13478516 -193.55862305 322.13478516 -195.03515625 322.1328125 C-196.35592163 322.13112061 -196.35592163 322.13112061 -197.70336914 322.12939453 C-200 322 -200 322 -203 321 C-204.35579719 320.84487287 -205.71636544 320.72928918 -207.078125 320.640625 C-216.96585952 319.90341572 -226.55744995 318.69074998 -236.25 316.5625 C-237.18875977 316.3572168 -238.12751953 316.15193359 -239.09472656 315.94042969 C-249.25010841 313.62199846 -258.83186904 309.99008024 -268.5625 306.3125 C-270.21862305 305.68891602 -270.21862305 305.68891602 -271.90820312 305.05273438 C-274.6060418 304.03666526 -277.30328845 303.01905595 -280 302 C-280 301.34 -280 300.68 -280 300 C-280.53367187 299.84144531 -281.06734375 299.68289063 -281.6171875 299.51953125 C-287.74868303 297.59946085 -293.32459514 294.99765643 -299 292 C-299 291.34 -299 290.68 -299 290 C-299.73992187 289.72414063 -300.47984375 289.44828125 -301.2421875 289.1640625 C-308.67561597 286.02643972 -315.15545723 280.48402289 -321.6171875 275.734375 C-323.38279192 274.44924654 -325.18298158 273.21134561 -327 272 C-327 271.34 -327 270.68 -327 270 C-327.86044922 269.61134766 -327.86044922 269.61134766 -328.73828125 269.21484375 C-331.18972216 267.89809397 -333.09234822 266.39035287 -335.1875 264.5625 C-335.88230469 263.96566406 -336.57710938 263.36882812 -337.29296875 262.75390625 C-339 261 -339 261 -340 258 C-339.34 258 -338.68 258 -338 258 C-338 258.66 -338 259.32 -338 260 C-337.43667969 260.23976563 -336.87335938 260.47953125 -336.29296875 260.7265625 C-333.51740852 262.26801503 -331.59239041 264.1631126 -329.3125 266.375 C-322.09427703 273.0439056 -314.14583439 278.52912437 -306 284 C-304.95328125 284.71027344 -303.9065625 285.42054688 -302.828125 286.15234375 C-280.86265705 300.36016627 -255.63864267 310.08864981 -230 315 C-229.35671753 315.12601593 -228.71343506 315.25203186 -228.05065918 315.38186646 C-214.75203929 317.92885101 -201.76872976 318.52020759 -188.25 318.4375 C-187.2414093 318.43545563 -186.2328186 318.43341125 -185.19366455 318.43130493 C-170.43049765 318.3825618 -156.35737564 317.70326188 -142 314 C-141.06019287 313.7738501 -140.12038574 313.5477002 -139.15209961 313.31469727 C-100.64996123 303.98225158 -67.50493276 285.88383783 -38.4375 259.1875 C-37.88989014 258.68484619 -37.34228027 258.18219238 -36.77807617 257.66430664 C-2.5320993 225.52625852 20.91933049 175.97576602 23 129 C23.61433723 111.93336755 23.61433723 111.93336755 22 95 C21.9081884 93.56814983 21.84752788 92.13382007 21.82421875 90.69921875 C21.01955089 59.88261454 14.02247452 31.98783576 0.91455078 4.17285156 C0 2 0 2 0 0 Z " fill="#FDF7F3" transform="translate(463,181)"/>
<path d="M0 0 C1.7714831 0.00502848 3.54296759 0.00958898 5.31445312 0.01367188 C9.60550387 0.0245628 13.89648606 0.04175196 18.1875 0.0625 C16.40642393 12.84357607 16.40642393 12.84357607 14.1875 15.0625 C11.69341517 14.99647128 9.2363508 14.86816128 6.75 14.6875 C6.07517578 14.64367187 5.40035156 14.59984375 4.70507812 14.5546875 C0.99123536 14.30313841 -2.70117316 13.96693705 -6.40039062 13.55322266 C-11.88872849 13.00203058 -17.3347433 12.88451678 -22.84765625 12.859375 C-23.87635834 12.85240601 -24.90506042 12.84543701 -25.9649353 12.83825684 C-29.26833218 12.82094608 -32.57155965 12.81453692 -35.875 12.8125 C-36.99987823 12.81149292 -38.12475647 12.81048584 -39.28372192 12.80944824 C-60.00132612 12.8220278 -79.77566736 14.01964591 -99.98413086 18.87988281 C-103.66396087 19.74983472 -106.19895684 20.16853417 -109.8125 19.0625 C-105.15994807 17.35414109 -100.49191367 15.6953792 -95.8125 14.0625 C-94.62011719 13.64355469 -93.42773438 13.22460938 -92.19921875 12.79296875 C-62.6317087 2.95794693 -30.99614369 -0.15447067 0 0 Z " fill="#F59532" transform="translate(401.8125,273.9375)"/>
<path d="M0 0 C44.54682707 -0.61598577 44.54682707 -0.61598577 65.33056641 2.58984375 C67.86676699 2.97952886 70.40492366 3.3241849 72.94921875 3.65625 C92.32316518 6.29560502 111.0231596 11.32806559 129 19 C125.43121163 20.18959612 124.18324872 19.70091155 120.61328125 18.69921875 C98.95061628 13.01078618 77.01127563 12.61665404 54.75 12.625 C53.56949066 12.62327789 52.38898132 12.62155579 51.17269897 12.61978149 C38.25200052 12.62191246 25.53106511 12.95976204 12.70410156 14.57568359 C9.74768401 14.91435046 6.96734138 15.09095578 4 15 C3.3299166 12.87607494 2.66403203 10.75082476 2 8.625 C1.62875 7.44164062 1.2575 6.25828125 0.875 5.0390625 C0 2 0 2 0 0 Z " fill="#F59633" transform="translate(128,275)"/>
<path d="M0 0 C3.90483185 3.14555899 6.67599271 6.99437719 7.41796875 11.9609375 C7.42593137 18.14789144 7.38415089 22.30207928 2.984375 27.05859375 C-1.75744504 31.3377972 -5.41767771 32.43980709 -11.671875 32.328125 C-16.37484709 31.78728321 -19.43839312 29.82748925 -22.55859375 26.328125 C-26.08989697 21.37243057 -26.98472164 17.04545741 -26.015625 11.05859375 C-24.69112078 6.56999612 -23.69666631 4.59775145 -20.015625 1.68359375 C-14.20083112 -1.46608627 -6.23353468 -2.91139895 0 0 Z " fill="#0964A5" transform="translate(284.015625,57.94140625)"/>
<path d="M0 0 C3.68410271 2.16355929 5.74720878 4.44186903 7.5625 8.375 C8.24965334 13.18507338 8.149159 16.02845281 5.5 20.125 C1.52779955 24.90696032 -1.79723735 27.09232287 -7.9765625 27.75390625 C-15.21935294 27.97533278 -20.70730237 28.03911435 -26.4375 23.375 C-29.42877523 18.88808716 -29.26783598 14.6288958 -28.4375 9.375 C-26.914559 6.41041378 -25.00313088 4.47311592 -22.4375 2.375 C-21.91929687 1.941875 -21.40109375 1.50875 -20.8671875 1.0625 C-14.72408482 -3.21096273 -6.68202934 -2.96702049 0 0 Z " fill="#0361A3" transform="translate(381.4375,132.625)"/>
<path d="M0 0 C4.66643291 2.69254137 7.90033466 6.20100399 9.625 11.375 C10.37540308 19.00409799 10.37540308 19.00409799 7.375 22.75 C2.32562819 27.56985491 -1.66308135 27.85423975 -8.57910156 27.88354492 C-14.9096373 27.69676491 -18.90090261 25.73437694 -23.375 21.375 C-26.58714582 17.77350318 -26.96089162 14.28390276 -26.7890625 9.58984375 C-25.88404751 4.74886735 -22.57220212 2.23014437 -18.75 -0.5 C-12.51502477 -2.57832508 -6.06301581 -2.74443329 0 0 Z " fill="#0360A3" transform="translate(185.375,132.625)"/>
<path d="M0 0 C17.43274636 2.04495631 34.26555077 5.74371904 51 11 C52.10843262 11.34272949 53.21686523 11.68545898 54.35888672 12.03857422 C73.8594623 18.11435798 92.41516332 25.55814171 111 34 C107.33224401 35.22258533 106.26912549 34.64264314 102.6796875 33.375 C101.59969482 33.00141357 100.51970215 32.62782715 99.40698242 32.24291992 C97.65865112 31.62767456 97.65865112 31.62767456 95.875 31 C75.52764629 24.04811207 55.26614085 18.33107018 34 15 C32.90816406 14.81308594 31.81632812 14.62617188 30.69140625 14.43359375 C25.16140967 13.7840386 19.62468682 13.63038994 14.0625 13.4375 C12.90169922 13.39431641 11.74089844 13.35113281 10.54492188 13.30664062 C7.69671768 13.20115158 4.84843471 13.09903445 2 13 C1.66127487 11.58461283 1.32925376 10.16762037 1 8.75 C0.814375 7.96109375 0.62875 7.1721875 0.4375 6.359375 C0 4 0 4 0 0 Z " fill="#F69A35" transform="translate(150,257)"/>
<path d="M0 0 C-0.33 4.29 -0.66 8.58 -1 13 C-3.21976563 13.02126953 -3.21976563 13.02126953 -5.484375 13.04296875 C-36.42620532 13.63610288 -66.05399299 21.00614539 -95.23779297 30.95458984 C-96.08615723 31.2377002 -96.93452148 31.52081055 -97.80859375 31.8125 C-98.54907959 32.06644531 -99.28956543 32.32039063 -100.05249023 32.58203125 C-102 33 -102 33 -105 32 C-74.53041733 17.51615872 -34.27982202 0 0 0 Z " fill="#F69C35" transform="translate(398,256)"/>
<path d="M0 0 C24.13767359 6.81262021 47.81801555 17.02230347 69.625 29.375 C70.50841064 29.87499512 71.39182129 30.37499023 72.30200195 30.89013672 C76.34277759 33.23915736 79.91880403 35.40810857 83 39 C78.79856041 37.73363202 75.00171448 36.08287353 71.09204102 34.13232422 C50.06135464 23.68567932 28.19875217 16.76787223 5.36889648 11.59741211 C3 11 3 11 1 10 C0.40077043 6.69293113 0.25436744 3.34917133 0 0 Z " fill="#F69C37" transform="translate(171,244)"/>
<path d="M0 0 C-0.33 3.3 -0.66 6.6 -1 10 C-5.83831479 11.75938719 -10.61373476 13.17603516 -15.64477539 14.28442383 C-37.23249062 19.05860601 -58.03282845 27.13045374 -77.60546875 37.39453125 C-78.72566406 37.92433594 -79.84585937 38.45414062 -81 39 C-81.66 38.67 -82.32 38.34 -83 38 C-25.83185841 0 -25.83185841 0 0 0 Z " fill="#F69E37" transform="translate(378,243)"/>
<path d="M0 0 C3.63 0 7.26 0 11 0 C11.83821882 3.91567934 12.6707635 7.83241783 13.5 11.75 C13.73847656 12.86117188 13.97695313 13.97234375 14.22265625 15.1171875 C14.44824219 16.18710937 14.67382812 17.25703125 14.90625 18.359375 C15.22045898 19.83615723 15.22045898 19.83615723 15.54101562 21.34277344 C16 24 16 24 16 28 C13.69 28 11.38 28 9 28 C8.67 26.35 8.34 24.7 8 23 C6.02 23 4.04 23 2 23 C2 24.65 2 26.3 2 28 C-0.64 28 -3.28 28 -6 28 C-4.63053948 18.4858532 -2.42755144 9.28597346 0 0 Z " fill="#0772B2" transform="translate(247,423)"/>
<path d="M0 0 C3.125 1.6875 3.125 1.6875 5 4 C5.3125 6.75 5.3125 6.75 5 9 C2.36 9 -0.28 9 -3 9 C-3 7.68 -3 6.36 -3 5 C-3.99 5.33 -4.98 5.66 -6 6 C-5.64594158 8.87040221 -5.14430291 9.86846235 -2.96875 11.8515625 C-2.1540625 12.43679688 -1.339375 13.02203125 -0.5 13.625 C3.91066998 16.82133995 3.91066998 16.82133995 5 19 C5.27613288 22.17552817 5.35668182 24.30296334 3.890625 27.16796875 C2 29 2 29 -1.03125 29.49609375 C-2.1759375 29.47675781 -3.320625 29.45742188 -4.5 29.4375 C-6.21703125 29.43556641 -6.21703125 29.43556641 -7.96875 29.43359375 C-11 29 -11 29 -12.89453125 27.671875 C-14.5563594 25.15858013 -14.1953164 22.92974595 -14 20 C-11.69 20 -9.38 20 -7 20 C-7 21.32 -7 22.64 -7 24 C-5.68 24 -4.36 24 -3 24 C-2.88364895 21.70218446 -2.88364895 21.70218446 -4 19 C-5.93147974 17.26379074 -7.95091569 15.80327215 -10.08984375 14.33203125 C-12 13 -12 13 -14 11 C-14.5412844 5.31651376 -14.5412844 5.31651376 -14 3 C-9.96204818 -1.06554602 -5.38905769 -0.78354635 0 0 Z " fill="#0A72B2" transform="translate(345,422)"/>
<path d="M0 0 C3.125 1.6875 3.125 1.6875 5 4 C5.3125 6.75 5.3125 6.75 5 9 C2.36 9 -0.28 9 -3 9 C-3 7.68 -3 6.36 -3 5 C-3.99 5.33 -4.98 5.66 -6 6 C-5.64594158 8.87040221 -5.14430291 9.86846235 -2.96875 11.8515625 C-2.1540625 12.43679688 -1.339375 13.02203125 -0.5 13.625 C3.91066998 16.82133995 3.91066998 16.82133995 5 19 C5.27613288 22.17552817 5.35668182 24.30296334 3.890625 27.16796875 C2 29 2 29 -1.03125 29.49609375 C-2.1759375 29.47675781 -3.320625 29.45742188 -4.5 29.4375 C-6.21703125 29.43556641 -6.21703125 29.43556641 -7.96875 29.43359375 C-11 29 -11 29 -12.89453125 27.671875 C-14.5563594 25.15858013 -14.1953164 22.92974595 -14 20 C-11.69 20 -9.38 20 -7 20 C-7 21.32 -7 22.64 -7 24 C-5.68 24 -4.36 24 -3 24 C-2.88364895 21.70218446 -2.88364895 21.70218446 -4 19 C-5.93147974 17.26379074 -7.95091569 15.80327215 -10.08984375 14.33203125 C-12 13 -12 13 -14 11 C-14.5412844 5.31651376 -14.5412844 5.31651376 -14 3 C-9.96204818 -1.06554602 -5.38905769 -0.78354635 0 0 Z " fill="#0A72B2" transform="translate(302,422)"/>
<path d="M0 0 C3.125 1.6875 3.125 1.6875 5 4 C5.3125 6.75 5.3125 6.75 5 9 C2.36 9 -0.28 9 -3 9 C-3 7.68 -3 6.36 -3 5 C-3.99 5.33 -4.98 5.66 -6 6 C-5.64594158 8.87040221 -5.14430291 9.86846235 -2.96875 11.8515625 C-2.1540625 12.43679688 -1.339375 13.02203125 -0.5 13.625 C3.91066998 16.82133995 3.91066998 16.82133995 5 19 C5.27613288 22.17552817 5.35668182 24.30296334 3.890625 27.16796875 C2 29 2 29 -1.03125 29.49609375 C-2.1759375 29.47675781 -3.320625 29.45742188 -4.5 29.4375 C-6.21703125 29.43556641 -6.21703125 29.43556641 -7.96875 29.43359375 C-11 29 -11 29 -12.89453125 27.671875 C-14.5563594 25.15858013 -14.1953164 22.92974595 -14 20 C-11.69 20 -9.38 20 -7 20 C-7 21.32 -7 22.64 -7 24 C-5.68 24 -4.36 24 -3 24 C-2.88364895 21.70218446 -2.88364895 21.70218446 -4 19 C-5.93147974 17.26379074 -7.95091569 15.80327215 -10.08984375 14.33203125 C-12 13 -12 13 -14 11 C-14.5412844 5.31651376 -14.5412844 5.31651376 -14 3 C-9.96204818 -1.06554602 -5.38905769 -0.78354635 0 0 Z " fill="#0A72B2" transform="translate(279,422)"/>
<path d="M0 0 C1.40765625 0.00193359 1.40765625 0.00193359 2.84375 0.00390625 C5.92476421 0.50683651 7.3372132 1.19386136 9.5 3.4375 C10.02799676 6.19892303 9.68598981 8.60115545 9.5 11.4375 C7.19 11.4375 4.88 11.4375 2.5 11.4375 C2.17 9.7875 1.84 8.1375 1.5 6.4375 C0.51 6.4375 -0.48 6.4375 -1.5 6.4375 C-1.83 12.3775 -2.16 18.3175 -2.5 24.4375 C-0.85 24.4375 0.8 24.4375 2.5 24.4375 C2.5 22.7875 2.5 21.1375 2.5 19.4375 C4.81 19.4375 7.12 19.4375 9.5 19.4375 C9.86444472 25.87602333 9.86444472 25.87602333 8.39453125 28.140625 C5.60929774 30.04721783 3.34113107 29.87123747 0 29.875 C-1.1446875 29.89433594 -2.289375 29.91367187 -3.46875 29.93359375 C-6.5 29.4375 -6.5 29.4375 -8.16235352 27.70922852 C-10.51903118 23.70687668 -9.97135066 19.47348861 -9.9375 14.9375 C-9.95748047 13.98746094 -9.97746094 13.03742188 -9.99804688 12.05859375 C-9.99322907 5.20766975 -9.99322907 5.20766975 -7.81640625 1.80859375 C-5.00007249 0.14159013 -3.26099904 -0.06719091 0 0 Z " fill="#0771B1" transform="translate(209.5,421.5625)"/>
<path d="M0 0 C4.95 0 9.9 0 15 0 C15 1.65 15 3.3 15 5 C12.36 5 9.72 5 7 5 C7 6.65 7 8.3 7 10 C9.64 10 12.28 10 15 10 C15 11.98 15 13.96 15 16 C12.36 16 9.72 16 7 16 C7 18.31 7 20.62 7 23 C9.64 23 12.28 23 15 23 C15 24.65 15 26.3 15 28 C10.05 28 5.1 28 0 28 C0 18.76 0 9.52 0 0 Z " fill="#0A72B2" transform="translate(311,423)"/>
<path d="M0 0 C2.31 0 4.62 0 7 0 C7 7.59 7 15.18 7 23 C9.64 23 12.28 23 15 23 C15 24.65 15 26.3 15 28 C10.05 28 5.1 28 0 28 C0 18.76 0 9.52 0 0 Z " fill="#006FB1" transform="translate(224,423)"/>
<path d="M0 0 C-3.44069624 2.29379749 -4.72290301 3 -9 3 C-9 3.66 -9 4.32 -9 5 C-12.1222615 5.7821901 -15.24828198 6.54833712 -18.375 7.3125 C-19.22578125 7.52583984 -20.0765625 7.73917969 -20.953125 7.95898438 C-36.62006371 11.76219051 -51.51831381 13.4417656 -67.625 13.1875 C-69.32550868 13.17239231 -71.02603069 13.1587149 -72.7265625 13.14648438 C-76.81804916 13.1140373 -80.90886839 13.06260953 -85 13 C-85 12.67 -85 12.34 -85 12 C-84.18136475 11.9906543 -83.36272949 11.98130859 -82.51928711 11.97167969 C-64.98246063 11.72155645 -48.19527454 10.78519355 -31 7 C-29.83984375 6.75121094 -28.6796875 6.50242187 -27.484375 6.24609375 C-23.20152032 5.24408898 -19.02064976 4.016209 -14.8359375 2.66796875 C-13.74430298 2.31786743 -13.74430298 2.31786743 -12.63061523 1.96069336 C-11.19718238 1.49618005 -9.76680085 1.02211375 -8.34008789 0.53735352 C-3.32734263 -1.10911421 -3.32734263 -1.10911421 0 0 Z " fill="#FCEEE5" transform="translate(352,488)"/>
<path d="M0 0 C-0.77601563 0.46148437 -1.55203125 0.92296875 -2.3515625 1.3984375 C-13.12743115 7.90510759 -23.48852512 14.98025258 -33.25390625 22.94140625 C-35 24 -35 24 -37.39379883 24.35498047 C-40.4596876 25.11376999 -41.39846111 26.02219361 -43.4453125 28.37890625 C-44.04730469 29.05244141 -44.64929688 29.72597656 -45.26953125 30.41992188 C-45.88183594 31.12697266 -46.49414062 31.83402344 -47.125 32.5625 C-48.349271 33.96621197 -49.58072459 35.36370174 -50.8203125 36.75390625 C-51.62879639 37.68698608 -51.62879639 37.68698608 -52.45361328 38.63891602 C-54 40 -54 40 -57 40 C-55.67968284 37.04914903 -54.28431749 35.06508963 -51.91796875 32.87109375 C-51.01401367 32.03094727 -51.01401367 32.03094727 -50.09179688 31.17382812 C-49.46337891 30.60083984 -48.83496094 30.02785156 -48.1875 29.4375 C-47.26227539 28.5722168 -47.26227539 28.5722168 -46.31835938 27.68945312 C-37.97259768 20 -37.97259768 20 -34 20 C-33.67 19.01 -33.34 18.02 -33 17 C-30.69921875 15.45703125 -30.69921875 15.45703125 -27.6875 13.8125 C-22.19030884 10.72647254 -16.97947785 7.37154122 -11.7890625 3.796875 C-3.88538682 -1.29512894 -3.88538682 -1.29512894 0 0 Z " fill="#FACEA1" transform="translate(177,98)"/>
<path d="M0 0 C4.83747894 1.51853192 8.01864662 4.27318493 11.75 7.5625 C12.36544678 8.0989917 12.98089355 8.6354834 13.61499023 9.18823242 C20.86064313 15.55769329 27.66486026 21.91123974 33 30 C32.67 30.66 32.34 31.32 32 32 C31.33355469 31.26136719 30.66710937 30.52273437 29.98046875 29.76171875 C21.14488823 20.01456927 12.30047684 10.46226073 1.80078125 2.4609375 C1.20652344 1.97882813 0.61226563 1.49671875 0 1 C0 0.67 0 0.34 0 0 Z " fill="#FDF5ED" transform="translate(409,118)"/>
<path d="M0 0 C1.98 0.66 3.96 1.32 6 2 C6 2.66 6 3.32 6 4 C6.86109375 4.26039062 7.7221875 4.52078125 8.609375 4.7890625 C12.07711769 6.02754203 15.06089671 7.54006368 18.25 9.375 C19.28640625 9.96023437 20.3228125 10.54546875 21.390625 11.1484375 C23.98392862 12.98859605 24.93749484 14.05867474 26 17 C22.54443815 17 21.57725748 16.32252709 18.7265625 14.48046875 C17.9015625 13.95259766 17.0765625 13.42472656 16.2265625 12.88085938 C15.36804688 12.32205078 14.50953125 11.76324219 13.625 11.1875 C11.92993788 10.09726687 10.23463239 9.00741202 8.5390625 7.91796875 C7.35425293 7.15299072 7.35425293 7.15299072 6.14550781 6.37255859 C3.79150602 4.86661889 1.41057912 3.41361121 -1 2 C-0.67 1.34 -0.34 0.68 0 0 Z " fill="#FCE8D4" transform="translate(370,93)"/>
<path d="M0 0 C15.33519164 0.628028 30.66834732 1.29076016 46 2 C42.84353731 3.85024537 40.54305015 4.24743631 36.90234375 4.23046875 C35.93619141 4.22853516 34.97003906 4.22660156 33.97460938 4.22460938 C32.97236328 4.21236328 31.97011719 4.20011719 30.9375 4.1875 C29.93138672 4.18685547 28.92527344 4.18621094 27.88867188 4.18554688 C20.42197066 4.14065689 20.42197066 4.14065689 17 3 C13.71162704 2.72989896 10.42355573 2.55507067 7.12890625 2.37890625 C4.17269223 2.02091279 2.56401655 1.38729566 0 0 Z " fill="#FEFBF9" transform="translate(243,499)"/>
<path d="M0 0 C3.66420789 1.46408306 5.20586328 3.30879492 7.375 6.5625 C7.97699219 7.45839844 8.57898438 8.35429687 9.19921875 9.27734375 C10.09060547 10.62505859 10.09060547 10.62505859 11 12 C11.54269531 12.78503906 12.08539063 13.57007813 12.64453125 14.37890625 C15.87671282 19.08398069 18.70406769 23.76527433 21 29 C20.67 29.66 20.34 30.32 20 31 C19.71390869 30.51756836 19.42781738 30.03513672 19.13305664 29.53808594 C13.68068269 20.38149387 8.15794913 11.48536763 1.58203125 3.08984375 C0 1 0 1 0 0 Z " fill="#FDF6EE" transform="translate(442,150)"/>
<path d="M0 0 C7.59 1.32 15.18 2.64 23 4 C19.79027854 6.13981431 19.48299161 6.23903333 15.9375 5.75 C14.761875 5.58951172 14.761875 5.58951172 13.5625 5.42578125 C9.35180433 4.72613822 5.17271973 3.89726541 1 3 C0.67 2.01 0.34 1.02 0 0 Z " fill="#FCEEE5" transform="translate(223,494)"/>
<path d="M0 0 C0.66 0.66 1.32 1.32 2 2 C1.726415 5.40115892 0.8056268 8.68852787 0 12 C-0.15855469 12.71929687 -0.31710937 13.43859375 -0.48046875 14.1796875 C-0.9375 16.0625 -0.9375 16.0625 -2 19 C-2.99 19.33 -3.98 19.66 -5 20 C-3.56390017 13.26137773 -1.85991713 6.63370443 0 0 Z " fill="#FCEEE6" transform="translate(481,341)"/>
<path d="M0 0 C-2.06228254 1.27118733 -4.12481891 2.54195965 -6.1875 3.8125 C-6.76564453 4.16892578 -7.34378906 4.52535156 -7.93945312 4.89257812 C-9.62496993 5.93055175 -11.31246025 6.96531853 -13 8 C-13.90363281 8.60199219 -14.80726563 9.20398438 -15.73828125 9.82421875 C-16.48464844 10.21222656 -17.23101562 10.60023437 -18 11 C-18.99 10.67 -19.98 10.34 -21 10 C-19.12800641 8.72474223 -17.25225974 7.45499289 -15.375 6.1875 C-14.33085937 5.47980469 -13.28671875 4.77210937 -12.2109375 4.04296875 C-3.84316186 -1.28105395 -3.84316186 -1.28105395 0 0 Z " fill="#FBE0C4" transform="translate(177,98)"/>
<path d="M0 0 C-3.1622274 1.73169596 -6.26742722 2.7128976 -9.75 3.625 C-10.73484375 3.88539063 -11.7196875 4.14578125 -12.734375 4.4140625 C-13.85585938 4.70410156 -13.85585938 4.70410156 -15 5 C-14.80078125 3.1171875 -14.80078125 3.1171875 -14 1 C-11.85546875 -0.1171875 -11.85546875 -0.1171875 -9.1875 -0.875 C-8.31480469 -1.14054687 -7.44210937 -1.40609375 -6.54296875 -1.6796875 C-3.6253103 -2.04719594 -2.44045169 -1.55870341 0 0 Z " fill="#FAE8DB" transform="translate(319,284)"/>
<path d="M0 0 C0.66 0.33 1.32 0.66 2 1 C2 1.66 2 2.32 2 3 C-0.62035018 4.36389525 -3.24556999 5.71632173 -5.875 7.0625 C-6.99455078 7.64741211 -6.99455078 7.64741211 -8.13671875 8.24414062 C-9.20986328 8.79038086 -9.20986328 8.79038086 -10.3046875 9.34765625 C-11.2944458 9.85824585 -11.2944458 9.85824585 -12.30419922 10.37915039 C-12.86381348 10.58403076 -13.42342773 10.78891113 -14 11 C-14.66 10.67 -15.32 10.34 -16 10 C-13.38321437 8.29948946 -10.75537761 6.61689493 -8.125 4.9375 C-7.37863281 4.45216797 -6.63226563 3.96683594 -5.86328125 3.46679688 C-5.14785156 3.01240234 -4.43242187 2.55800781 -3.6953125 2.08984375 C-3.03547363 1.66566162 -2.37563477 1.24147949 -1.69580078 0.80444336 C-1.13618652 0.53897705 -0.57657227 0.27351074 0 0 Z " fill="#F28439" transform="translate(311,271)"/>
<path d="M0 0 C4.98844309 0.6099126 9.60155346 1.63474435 14.4375 3.0625 C16.29181641 3.60583984 16.29181641 3.60583984 18.18359375 4.16015625 C19.11300781 4.43730469 20.04242188 4.71445312 21 5 C21 5.66 21 6.32 21 7 C13.57872637 6.21050281 6.86688349 3.87966082 0 1 C0 0.67 0 0.34 0 0 Z " fill="#FDFAF8" transform="translate(202,489)"/>
<path d="M0 0 C0.66 0.33 1.32 0.66 2 1 C-0.55180305 4.08342869 -3.24532778 5.01684785 -7 6.25 C-8.5778125 6.78367187 -8.5778125 6.78367187 -10.1875 7.328125 C-13 8 -13 8 -16 7 C-13.3789879 5.80293183 -10.75385304 4.61711354 -8.125 3.4375 C-7.00544922 2.92413086 -7.00544922 2.92413086 -5.86328125 2.40039062 C-3.93450668 1.54026143 -1.9688967 0.76383202 0 0 Z " fill="#F2853B" transform="translate(309,281)"/>
<path d="M0 0 C6.20477864 1.93624298 12.10825719 4.25609141 18 7 C13.73493961 8.4216868 10.79962257 6.65386682 6.8125 5.0625 C6.06291016 4.77181641 5.31332031 4.48113281 4.54101562 4.18164062 C2.69075523 3.46274964 0.84493352 2.73245347 -1 2 C-0.67 1.34 -0.34 0.68 0 0 Z " fill="#F39350" transform="translate(243,284)"/>
<path d="M0 0 C0.33 0 0.66 0 1 0 C1.33 4.29 1.66 8.58 2 13 C0.68 13 -0.64 13 -2 13 C-1.85851011 11.3954444 -1.71164314 9.79136233 -1.5625 8.1875 C-1.48128906 7.29417969 -1.40007812 6.40085937 -1.31640625 5.48046875 C-1 3 -1 3 0 0 Z " fill="#C6DEEC" transform="translate(252,428)"/>
<path d="M0 0 C0 3 0 3 -1.57421875 4.8671875 C-2.27160156 5.52976562 -2.96898437 6.19234375 -3.6875 6.875 C-4.41324219 7.57367188 -5.13898438 8.27234375 -5.88671875 8.9921875 C-6.58410156 9.65476562 -7.28148437 10.31734375 -8 11 C-9.00356927 11.99641794 -10.00431338 12.99570514 -11 14 C-11.66 14.66 -12.32 15.32 -13 16 C-13.66 15.67 -14.32 15.34 -15 15 C-10.05 10.05 -5.1 5.1 0 0 Z " fill="#FEFEFE" transform="translate(436,430)"/>
<path d="M0 0 C2.15234375 0.359375 2.15234375 0.359375 4 1 C2.42982807 2.36940568 0.84334609 3.72012895 -0.75 5.0625 C-1.63171875 5.81660156 -2.5134375 6.57070312 -3.421875 7.34765625 C-6 9 -6 9 -8.328125 8.74609375 C-8.87984375 8.49988281 -9.4315625 8.25367187 -10 8 C-8.9171875 7.4121875 -8.9171875 7.4121875 -7.8125 6.8125 C-4.85357293 5.06862424 -4.85357293 5.06862424 -2.4375 2.25 C-1.633125 1.5075 -0.82875 0.765 0 0 Z " fill="#F6B16C" transform="translate(154,109)"/>
<path d="M0 0 C3.57294032 1.32002058 6.63953492 2.89521388 9.8125 5 C10.60269531 5.515625 11.39289063 6.03125 12.20703125 6.5625 C12.79871094 7.036875 13.39039063 7.51125 14 8 C14 8.66 14 9.32 14 10 C11.43800443 8.8175405 9.31907756 7.51767994 7 5.875 C4.02429162 3.64666737 4.02429162 3.64666737 0 4 C0 2.68 0 1.36 0 0 Z " fill="#FCEBD9" transform="translate(395,108)"/>
<path d="M0 0 C5.80342274 1.48805711 10.17590879 4.59097555 15 8 C14.34 8.66 13.68 9.32 13 10 C10.8304939 8.52485505 8.66436293 7.0451561 6.5 5.5625 C5.87996094 5.14162109 5.25992187 4.72074219 4.62109375 4.28710938 C3.06289602 3.21691863 1.52921949 2.11120482 0 1 C0 0.67 0 0.34 0 0 Z " fill="#F5A14C" transform="translate(381,101)"/>
<path d="M0 0 C4.77609498 1.64178265 8.79382904 4.26546702 13 7 C12.01 7.495 12.01 7.495 11 8 C8.3984375 6.78515625 8.3984375 6.78515625 5.375 5.0625 C4.37210938 4.49660156 3.36921875 3.93070312 2.3359375 3.34765625 C1.56507813 2.90292969 0.79421875 2.45820313 0 2 C0 1.34 0 0.68 0 0 Z " fill="#F38A3E" transform="translate(241,275)"/>
<path d="M0 0 C4.13621084 3.3810038 7.81316569 6.66590534 11 11 C10.01 11.495 10.01 11.495 9 12 C5.74483572 8.83525695 2.67991207 5.67247209 0 2 C0 1.34 0 0.68 0 0 Z " fill="#FCF0E8" transform="translate(112,427)"/>
<path d="M0 0 C0.33 0.99 0.66 1.98 1 3 C1.66 3 2.32 3 3 3 C2.67 5.97 2.34 8.94 2 12 C1.67 12 1.34 12 1 12 C0.67 8.04 0.34 4.08 0 0 Z " fill="#FDF0E6" transform="translate(485,270)"/>
<path d="M0 0 C0.8971875 0.5259375 0.8971875 0.5259375 1.8125 1.0625 C-1.15437001 2.71076111 -3.84376525 3.50521087 -7.1875 4.0625 C-6.375 2.125 -6.375 2.125 -5.1875 0.0625 C-2.1875 -0.9375 -2.1875 -0.9375 0 0 Z " fill="#FAEFE6" transform="translate(317.1875,282.9375)"/>
<path d="M0 0 C0.96661363 3.12180401 0.98988909 5.52083795 0.5625 8.75 C0.40974609 9.94882812 0.40974609 9.94882812 0.25390625 11.171875 C0.12822266 12.07679688 0.12822266 12.07679688 0 13 C-0.33 13 -0.66 13 -1 13 C-1.33 9.04 -1.66 5.08 -2 1 C-1.34 0.67 -0.68 0.34 0 0 Z " fill="#1D9FDC" transform="translate(275,255)"/>
<path d="M0 0 C-1.25 1.5625 -1.25 1.5625 -3 3 C-5.1875 2.6875 -5.1875 2.6875 -7 2 C-5.26578631 -1.46842738 -3.40984787 -1.13661596 0 0 Z " fill="#FBF3ED" transform="translate(305,287)"/>
<path d="M0 0 C0.66 0.33 1.32 0.66 2 1 C-0.17424117 3.50037734 -1.73045798 4.43628586 -5 5 C-5 4.01 -5 3.02 -5 2 C-2.625 0.9375 -2.625 0.9375 0 0 Z " fill="#F17E30" transform="translate(309,281)"/>
</svg>
